# xmcd
#
# Track frame offsets:
# 150
# 19178
# 36215
# 55067
# 70776
# 85632
# 103365
# 119899
# 133274
# 147472
#
# Disc length: 2272 seconds
#
# Revision: 0
# Processed by: cddbd v1.5.2PL0 Copyright (c) Steve Scherf et al.
# Submitted via: CoinsHifi v1.9g contact@coinshifi.com
#
DISCID=9608de0a
DTITLE=female - duffy
DYEAR=2008
DGENRE=Rock
TTITLE0=rockferry
TTITLE1=warwick avenue
TTITLE2=serious
TTITLE3=stepping stone
TTITLE4=syrup and honey
TTITLE5=mercy
TTITLE6=hanging on too long
TTITLE7=delayed devition
TTITLE8=im scared
TTITLE9=distant dreamer
EXTD=
EXTT0=Medley
EXTT1=Medley
EXTT2=Medley
EXTT3=Medley
EXTT4=Medley
EXTT5=Medley
EXTT6=Medley
EXTT7=Medley
EXTT8=Medley
EXTT9=Medley
PLAYORDER=
